<?xml version="1.0" standalone="no"?>
<!DOCTYPE svg PUBLIC "-//W3C//DTD SVG 20010904//EN"
 "http://www.w3.org/TR/2001/REC-SVG-20010904/DTD/svg10.dtd">
<svg version="1.0" xmlns="http://www.w3.org/2000/svg"
 width="1024.000000pt" height="1024.000000pt" viewBox="0 0 1024.000000 1024.000000"
 preserveAspectRatio="xMidYMid meet">

<g transform="translate(0.000000,1024.000000) scale(0.100000,-0.100000)"
fill="#000000" stroke="none">
<path d="M2171 9809 c-52 -20 -154 -104 -207 -167 -63 -77 -113 -174 -144
-282 -28 -97 -38 -358 -20 -523 20 -186 92 -435 171 -589 200 -393 541 -699
994 -893 61 -26 216 -82 345 -125 267 -88 289 -97 384 -153 159 -92 251 -225
258 -372 3 -50 3 -50 -29 -53 -44 -4 -52 2 -125 90 -214 256 -403 338 -1093
468 -240 45 -551 109 -612 126 -13 4 -23 2 -23 -3 0 -31 87 -342 125 -449 61
-169 195 -442 283 -574 172 -259 364 -421 590 -499 119 -40 233 -54 395 -47
82 4 154 8 160 9 8 1 14 -37 20 -123 13 -205 12 -211 -86 -428 -102 -223 -195
-494 -232 -672 -33 -158 -44 -386 -25 -533 9 -75 10 -102 1 -105 -6 -2 -46
-26 -88 -54 -156 -101 -267 -247 -323 -419 -31 -94 -32 -96 -78 -118 -211
-102 -468 -417 -560 -686 -67 -197 -68 -426 -3 -578 47 -109 192 -279 304
-355 47 -33 47 -33 32 -62 -49 -94 -64 -325 -31 -460 97 -391 438 -625 788
-541 196 46 318 138 469 351 l32 45 -50 -51 c-132 -135 -359 -201 -547 -160
-310 69 -490 341 -421 635 18 75 51 138 76 146 24 8 56 -10 64 -34 3 -11 0
-33 -8 -48 -48 -94 -47 -244 1 -346 121 -259 500 -305 732 -90 33 30 102 112
152 182 177 242 361 486 377 498 26 20 54 15 142 -22 163 -70 275 -70 438 0
130 55 191 68 326 68 111 1 127 -2 210 -32 206 -76 233 -83 305 -88 87 -6 164
11 262 57 68 32 105 37 130 18 16 -13 176 -232 361 -494 59 -83 127 -170 151
-192 82 -75 224 -132 332 -132 183 0 319 80 394 233 38 77 41 88 41 172 1 69
-4 103 -21 148 -20 54 -21 59 -5 83 12 19 23 24 43 22 36 -4 79 -88 93 -182
52 -335 -246 -642 -596 -613 -134 12 -252 60 -354 145 l-53 45 53 -72 c154
-212 365 -322 588 -307 226 15 418 141 542 356 71 122 93 214 93 385 0 126 -3
149 -28 225 l-28 84 23 16 c108 70 261 240 314 348 85 172 88 393 9 612 -99
276 -321 547 -546 665 -58 31 -68 40 -68 63 -1 51 -50 167 -105 249 -68 99
-156 184 -260 248 -77 48 -77 48 -71 84 21 119 27 258 16 369 -22 223 -100
516 -199 739 -21 48 -66 150 -100 226 l-62 138 7 175 7 174 36 -7 c20 -4 113
-7 206 -7 189 1 259 14 404 77 225 98 424 298 597 601 139 244 258 564 308
825 14 70 13 71 -8 66 -143 -34 -298 -65 -731 -146 -366 -68 -547 -122 -702
-210 -85 -49 -213 -163 -270 -242 -50 -70 -71 -87 -105 -87 -38 0 -44 19 -30
98 27 161 146 296 337 381 28 13 147 56 265 96 227 77 399 144 515 202 527
264 884 712 995 1253 28 133 39 451 20 567 -27 172 -93 312 -197 423 -63 68
-167 140 -200 140 -5 0 1 -32 14 -71 54 -166 68 -276 68 -529 0 -205 -3 -250
-24 -355 -44 -227 -128 -443 -226 -581 -73 -102 -70 -106 -71 109 -1 167 -4
209 -27 319 -31 147 -62 238 -123 362 -132 266 -346 487 -589 606 -55 27 -111
52 -125 56 -25 6 -25 6 6 -27 207 -226 439 -677 498 -970 91 -448 -10 -792
-286 -976 -54 -36 -200 -103 -224 -103 -2 0 2 10 10 23 64 103 88 388 47 573
-35 162 -90 282 -180 393 -47 59 -150 156 -157 148 -2 -2 5 -39 15 -83 62
-251 57 -525 -13 -730 -84 -246 -222 -410 -510 -604 -142 -95 -200 -143 -243
-200 -21 -28 -41 -50 -45 -50 -4 0 -20 18 -34 40 l-27 40 -672 0 -673 0 -34
-41 -34 -40 -32 45 c-42 58 -111 116 -247 206 -342 227 -477 390 -550 665 -48
177 -46 470 5 681 10 43 17 80 15 82 -7 8 -121 -100 -161 -153 -57 -76 -127
-219 -154 -315 -33 -120 -46 -288 -32 -419 10 -101 21 -140 69 -249 4 -8 -12
-6 -48 8 -113 45 -174 85 -260 170 -71 71 -93 101 -132 180 -69 140 -81 203
-81 405 1 195 25 339 89 526 78 226 251 536 396 708 59 70 61 74 33 67 -16 -4
-65 -26 -109 -48 -254 -128 -469 -348 -604 -617 -100 -198 -141 -380 -148
-659 -6 -235 -3 -231 -94 -90 -117 182 -191 403 -220 657 -15 136 -7 445 16
570 15 85 51 218 70 264 8 19 1 20 -34 6z m5563 -2911 c-84 -252 -336 -606
-522 -732 -90 -61 -200 -96 -316 -102 -76 -4 -88 -3 -72 8 157 107 419 299
414 303 -2 2 -41 -5 -88 -16 -47 -10 -89 -19 -95 -19 -14 0 68 81 259 258 92
86 164 158 158 160 -21 7 -264 -81 -373 -134 -141 -69 -259 -145 -367 -237
-76 -64 -182 -176 -225 -237 -9 -13 -18 -22 -20 -19 -2 2 -8 45 -14 94 -9 89
-9 91 18 130 39 58 202 213 289 274 145 102 326 181 567 247 143 39 397 91
401 82 2 -4 -4 -31 -14 -60z m-5119 37 c574 -121 848 -254 1098 -534 l67 -75
-6 -81 c-8 -109 -10 -114 -37 -78 -174 232 -465 425 -828 547 -74 25 -141 46
-149 46 -8 0 29 -39 81 -87 131 -121 339 -326 335 -330 -2 -2 -35 3 -75 12
-101 21 -112 20 -76 -10 30 -25 225 -163 343 -242 l64 -43 -57 0 c-90 0 -204
28 -295 72 -72 34 -101 56 -185 142 -155 156 -296 367 -379 568 -36 86 -43
118 -28 118 4 0 62 -11 127 -25z m2405 -1 c119 -4 283 -2 392 5 l188 11 68
-72 c117 -124 262 -300 262 -318 0 -4 -31 -45 -70 -91 -66 -78 -170 -221 -170
-233 0 -14 30 -1 158 68 139 76 291 136 341 136 61 0 129 -71 156 -163 33
-113 11 -383 -49 -590 -62 -211 -138 -357 -246 -471 -72 -76 -114 -148 -125
-212 -17 -106 -29 -109 -38 -9 -4 36 -9 70 -12 75 -4 6 -23 10 -43 10 -50 0
-100 33 -119 78 -25 57 -30 239 -9 281 20 38 35 44 141 61 189 29 280 123 292
300 6 77 7 80 69 167 35 48 60 91 56 94 -18 17 -153 69 -177 69 -49 0 -138
-62 -265 -186 -69 -67 -148 -136 -175 -153 -93 -59 -167 -34 -257 85 l-43 58
-3 -47 c-5 -78 23 -163 82 -253 102 -154 116 -191 140 -379 21 -164 44 -247
111 -403 48 -112 56 -139 50 -170 -9 -54 -116 -262 -143 -280 -18 -12 -41 -13
-110 -8 -126 10 -163 17 -169 32 -3 8 12 36 32 64 l37 50 -21 42 c-11 23 -17
45 -13 49 23 20 96 39 130 33 48 -8 59 5 68 79 6 51 3 64 -25 121 -54 111 -91
121 -276 82 -91 -20 -156 -17 -271 14 -43 11 -88 17 -103 14 -47 -12 -92 -55
-122 -118 -32 -67 -36 -119 -15 -171 14 -33 15 -33 50 -23 28 9 44 8 78 -6 72
-27 74 -30 51 -62 -33 -47 -32 -56 9 -113 43 -61 41 -67 -32 -76 -25 -3 -80
-10 -123 -16 -76 -11 -79 -11 -104 12 -14 13 -52 78 -85 144 -73 147 -73 158
2 334 54 129 81 235 100 400 15 129 47 215 119 325 66 100 98 180 107 265 5
56 5 56 -13 31 -63 -85 -136 -141 -187 -143 -45 -1 -106 44 -258 190 -204 195
-254 214 -393 146 -41 -20 -75 -40 -75 -44 0 -4 25 -42 56 -85 66 -92 74 -110
74 -173 0 -132 73 -232 196 -271 38 -11 95 -24 127 -27 33 -3 68 -14 82 -24
47 -38 56 -166 19 -297 -18 -63 -56 -92 -120 -92 l-42 0 -6 -54 c-4 -30 -11
-67 -15 -82 -7 -27 -9 -24 -21 31 -18 87 -51 145 -133 234 -119 129 -202 296
-257 514 -54 217 -64 446 -24 567 21 62 84 135 127 145 52 14 156 -22 341
-115 99 -49 181 -88 183 -86 7 7 -67 115 -148 216 l-81 100 48 66 c50 71 122
159 219 268 l60 67 80 -6 c44 -3 172 -8 285 -11z m-630 -1203 l85 -80 -35 -1
c-59 0 -107 19 -139 56 -25 28 -31 44 -31 80 0 56 3 54 120 -55z m1580 49 c0
-72 -89 -139 -173 -128 -24 3 -19 9 65 86 51 45 95 82 100 82 4 0 8 -18 8 -40z
m-2114 -792 c-8 -163 7 -388 35 -534 21 -111 68 -269 93 -314 l14 -25 12 30
c36 99 104 261 111 269 5 6 9 -17 9 -55 0 -160 46 -346 122 -492 32 -62 58
-94 125 -155 46 -42 93 -82 106 -89 17 -9 166 -12 642 -13 611 0 621 0 654 21
46 28 131 102 131 113 0 6 9 19 19 30 33 35 98 176 126 271 30 106 44 195 45
285 1 101 12 102 49 3 45 -119 82 -203 91 -203 8 0 63 160 84 245 37 149 49
257 55 485 4 145 10 227 15 215 5 -11 24 -56 43 -100 53 -121 149 -417 173
-530 11 -55 23 -152 26 -215 l4 -115 -29 90 c-16 50 -36 108 -44 130 l-15 40
-6 -50 c-16 -124 -57 -345 -73 -395 l-18 -55 -135 -5 c-121 -4 -141 -8 -194
-33 -32 -15 -75 -44 -94 -65 l-35 -37 219 -6 c243 -7 319 -21 435 -79 201
-101 309 -226 401 -462 51 -131 50 -166 -3 -193 -47 -25 -74 -5 -105 79 -61
167 -101 235 -182 315 -88 88 -165 132 -278 161 -66 17 -111 20 -307 20 l-229
0 -41 -35 c-22 -19 -59 -44 -82 -55 -40 -19 -61 -20 -696 -20 -733 0 -691 -4
-777 74 l-39 36 -244 0 c-216 0 -253 -2 -319 -21 -224 -62 -364 -202 -444
-444 -30 -92 -34 -98 -63 -114 -29 -15 -67 0 -89 34 -17 26 -16 30 5 98 99
311 267 488 548 574 84 26 98 27 315 27 126 1 228 4 228 8 0 13 -86 80 -135
106 -46 24 -63 26 -192 30 l-142 4 -10 32 c-27 88 -71 347 -71 424 0 23 -4 42
-8 42 -8 0 -67 -152 -78 -202 -11 -50 -24 -29 -19 30 17 176 55 362 105 513
28 85 154 409 159 409 2 0 1 -60 -3 -132z m1370 -719 c73 -13 195 -53 253 -83
l43 -23 -41 -35 c-95 -81 -231 -128 -371 -128 -141 0 -274 46 -370 129 l-44
38 64 30 c166 77 313 100 466 72z m-1125 -1026 c10 -12 14 -53 14 -157 l0
-141 119 -3 c67 -1 126 -7 133 -14 9 -7 13 -43 13 -126 0 -154 2 -152 -149
-152 l-116 0 -1 -140 c-1 -97 -5 -144 -14 -155 -17 -21 -241 -22 -263 -1 -11
11 -13 44 -9 155 l4 141 -112 0 c-61 0 -120 5 -131 10 -17 10 -19 22 -19 134
0 90 4 127 13 134 7 6 64 13 128 14 l114 3 0 141 c0 105 4 145 14 157 20 25
242 25 262 0z m2288 -10 c33 -24 61 -79 61 -118 0 -43 -30 -96 -69 -122 -62
-42 -155 -22 -197 42 -23 35 -22 113 1 153 40 67 143 90 204 45z m-3487 -324
c177 -109 272 -202 389 -380 42 -63 99 -142 128 -176 28 -35 50 -63 48 -63
-10 0 -229 91 -287 119 -35 17 -64 30 -66 28 -4 -3 191 -303 256 -391 32 -45
57 -82 55 -84 -15 -16 -476 200 -630 296 -27 17 -51 29 -52 28 -4 -4 225 -371
269 -432 17 -24 29 -46 26 -49 -9 -9 -98 24 -207 77 -90 44 -117 64 -196 142
-110 109 -135 155 -142 264 -9 141 44 311 145 467 58 89 156 205 173 205 5 0
46 -23 91 -51z m4580 4 c202 -217 309 -508 254 -695 -48 -167 -302 -366 -526
-413 l-35 -7 26 28 c14 16 40 49 56 74 50 74 232 380 227 380 -3 0 -51 -27
-107 -60 -159 -95 -363 -195 -466 -229 -52 -18 -98 -30 -104 -28 -5 1 6 21 24
43 56 67 291 415 285 421 -1 1 -51 -19 -112 -46 -115 -52 -226 -92 -233 -85
-2 2 14 23 35 46 22 24 82 106 134 183 99 145 172 227 277 308 66 51 191 127
209 127 6 0 31 -21 56 -47z m-1445 5 c79 -48 83 -177 8 -236 -102 -81 -245 12
-221 143 8 39 49 93 80 105 39 16 98 11 133 -12z m651 2 c36 -22 62 -72 62
-120 0 -126 -147 -192 -235 -104 -61 61 -56 155 11 214 43 37 110 42 162 10z
m-298 -308 c82 -60 76 -197 -11 -244 -82 -44 -173 -5 -197 85 -34 125 106 232
208 159z m-1698 -267 c133 -94 120 -292 -25 -366 -58 -30 -159 -24 -214 13
-52 34 -93 113 -93 178 0 56 40 141 78 166 62 40 77 45 144 42 55 -3 75 -9
110 -33z m1087 16 c21 -11 52 -35 68 -55 89 -101 61 -261 -57 -324 -38 -20
-56 -23 -112 -20 -55 3 -75 9 -110 34 -60 42 -88 95 -88 167 0 63 19 118 53
156 55 59 172 79 246 42z"/>
<path d="M3849 1053 c-13 -16 -12 -17 4 -4 16 13 21 21 13 21 -2 0 -10 -8 -17
-17z"/>
<path d="M6390 1036 c0 -2 8 -10 18 -17 15 -13 16 -12 3 4 -13 16 -21 21 -21
13z"/>
</g>
</svg>
